<svg version="1.1" id="Layer_1" xmlns="http://www.w3.org/2000/svg" xmlns:xlink="http://www.w3.org/1999/xlink" x="0px" y="0px"
	 width="100%" viewBox="0 0 245 173" enable-background="new 0 0 245 173" xml:space="preserve">
<path fill="#FEFEFD" opacity="1.000000" stroke="none" 
	d="
M151.000000,174.000000 
	C100.666672,174.000000 50.833340,174.000000 1.000007,174.000000 
	C1.000005,116.333344 1.000005,58.666679 1.000002,1.000015 
	C82.666656,1.000010 164.333313,1.000010 245.999969,1.000005 
	C245.999985,58.666653 245.999985,116.333305 246.000000,173.999969 
	C214.500000,174.000000 183.000000,174.000000 151.000000,174.000000 
M54.380856,105.356430 
	C51.895660,108.144119 49.410469,110.931808 46.207672,113.885895 
	C44.823730,114.728844 43.439785,115.571800 42.055843,116.414749 
	C43.243431,117.324661 44.037556,117.395645 44.831703,117.395920 
	C73.083427,117.405663 101.335167,117.417534 129.586853,117.388000 
	C131.057739,117.386467 132.528229,117.024246 134.901535,116.439919 
	C137.304459,116.945503 139.707367,117.451080 142.417389,118.021286 
	C142.417389,107.382637 142.417389,97.824196 142.417389,88.100677 
	C140.100204,88.100677 138.033691,88.100677 135.648132,88.100677 
	C135.648132,96.482765 135.728073,104.602806 135.573639,112.718399 
	C135.546173,114.161545 134.544876,115.586159 133.368484,116.596252 
	C130.857788,114.724037 128.391846,112.787422 125.821373,111.001244 
	C123.969955,109.714722 122.004044,107.683884 120.045929,107.632446 
	C114.436790,107.485100 111.677101,103.752243 109.406815,99.842560 
	C109.812279,99.331055 110.369995,98.879959 110.600487,98.299026 
	C114.353371,88.840630 113.251442,79.949738 106.643425,72.206055 
	C99.875786,64.275299 90.984634,61.679783 81.006981,64.406494 
	C71.212494,67.083153 64.666367,73.710869 63.336246,83.819473 
	C62.655155,88.995621 64.437714,94.495926 65.005386,100.565292 
	C63.978130,103.402946 62.356586,104.632874 59.487457,101.708572 
	C59.487457,92.796646 59.487457,83.884720 59.487457,74.443123 
	C56.874748,74.443123 54.853634,74.139305 52.997112,74.560654 
	C51.936813,74.801292 50.373856,76.204819 50.351875,77.116440 
	C50.148479,85.553032 50.231770,93.996544 50.231770,102.637520 
	C52.118515,102.886406 53.559826,103.076538 54.983227,103.885307 
	C54.995354,104.299141 55.007484,104.712967 54.380856,105.356430 
M224.780869,110.775383 
	C224.797928,110.062027 224.815002,109.348679 224.946152,107.849525 
	C224.457199,100.680191 221.520645,96.713654 216.093964,95.892464 
	C210.037949,94.976028 205.013306,98.042290 203.402863,103.637199 
	C201.727570,109.457329 204.571854,115.451797 209.969955,117.477715 
	C215.967346,119.728531 221.396423,117.610809 224.780869,110.775383 
M43.270836,77.240913 
	C38.368332,72.325951 32.930996,73.160309 26.693287,76.527969 
	C26.693287,71.736076 26.693287,67.699348 26.693287,63.560375 
	C23.462875,63.560375 20.870926,63.560375 17.967892,63.560375 
	C17.967892,76.720665 17.967892,89.604584 17.967892,103.021660 
	C20.291943,103.021660 22.419815,103.046318 24.546829,103.014236 
	C26.412674,102.986099 28.514362,102.300682 30.101702,102.933861 
	C36.820965,105.614159 43.561852,103.127953 45.974556,96.271652 
	C48.225479,89.875092 48.035637,83.523155 43.270836,77.240913 
M167.625854,110.720795 
	C167.721313,108.740364 168.072418,106.732376 167.862396,104.784882 
	C167.318115,99.737656 164.153992,95.958763 159.982025,95.924118 
	C155.389328,95.885963 150.790924,96.533592 146.094498,96.890099 
	C146.094498,105.972672 146.094498,115.147545 146.094498,124.334839 
	C148.380280,124.334839 150.275070,124.334839 152.315552,124.334839 
	C152.504105,121.653542 152.669144,119.306557 152.842621,116.839584 
	C161.028915,119.529419 164.349213,118.209389 167.625854,110.720795 
M187.087723,116.490822 
	C187.117432,113.159126 186.729507,109.748131 187.341110,106.526917 
	C187.681412,104.734627 189.687149,103.258553 190.942291,101.639961 
	C191.975021,103.232613 193.679367,104.737740 193.900711,106.436134 
	C194.362442,109.978790 194.040466,113.623573 194.040466,117.235931 
	C196.735046,117.235931 198.772507,117.235931 200.981735,117.235931 
	C200.981735,112.317223 201.137512,107.817497 200.933960,103.334091 
	C200.761536,99.536438 199.158920,96.138657 194.948990,95.970131 
	C190.188004,95.779533 185.390305,96.506096 180.528366,96.839325 
	C180.528366,103.684700 180.528366,110.424934 180.528366,117.696930 
	C182.786377,117.507088 184.710449,117.345314 187.087723,116.490822 
M177.120148,111.215881 
	C177.120148,106.309296 177.120148,101.402710 177.120148,96.496353 
	C174.422913,96.496353 172.508606,96.496353 170.367493,96.496353 
	C170.367493,103.547432 170.367493,110.292633 170.367493,117.354256 
	C172.641647,117.354256 174.688080,117.354256 177.120193,117.354256 
	C177.120193,115.408318 177.120193,113.767456 177.120148,111.215881 
M54.531906,70.837265 
	C56.108803,70.734909 57.685699,70.632553 59.289452,70.528458 
	C59.289452,67.910339 59.289452,65.841286 59.289452,63.188080 
	C57.213116,63.188080 55.436775,63.280277 53.673847,63.165848 
	C51.208149,63.005802 50.032402,63.836861 50.091774,66.522034 
	C50.148273,69.077477 50.166489,71.297684 54.531906,70.837265 
M230.907623,91.175674 
	C229.276474,91.095421 227.596802,90.754997 226.034958,91.046333 
	C225.271500,91.188744 224.189682,92.522797 224.212158,93.289345 
	C224.244492,94.391693 224.882874,96.072281 225.733475,96.452454 
	C229.614502,98.187050 231.874969,96.228561 230.907623,91.175674 
M171.106461,93.205978 
	C173.020020,93.205978 174.933578,93.205978 176.890717,93.205978 
	C176.890717,91.220894 176.890717,89.783775 176.890717,88.135391 
	C174.621277,88.135391 172.559677,88.135391 170.144943,88.135391 
	C170.241928,89.888161 170.321854,91.332619 171.106461,93.205978 
z"/>
<path fill="#FF7B06" opacity="1.000000" stroke="none" 
	d="
M65.106819,99.849731 
	C64.437714,94.495926 62.655155,88.995621 63.336246,83.819473 
	C64.666367,73.710869 71.212494,67.083153 81.006981,64.406494 
	C90.984634,61.679783 99.875786,64.275299 106.643425,72.206055 
	C113.251442,79.949738 114.353371,88.840630 110.600487,98.299026 
	C110.369995,98.879959 109.812279,99.331055 108.684692,100.053345 
	C104.068352,101.564377 101.208344,100.000725 98.556770,97.203125 
	C96.749290,95.296112 94.650543,93.594421 92.442993,92.171883 
	C91.550293,91.596626 90.021217,92.008911 88.440140,91.999939 
	C85.030273,94.707314 81.962006,97.386566 78.581482,99.924057 
	C76.532036,99.005150 75.220421,95.452377 72.516541,99.112923 
	C69.838913,99.468437 67.472862,99.659088 65.106819,99.849731 
z"/>
<path fill="#0B0B0B" opacity="1.000000" stroke="none" 
	d="
M72.828117,98.948051 
	C75.220421,95.452377 76.532036,99.005150 78.643745,100.329117 
	C79.018280,103.434006 79.018280,105.992081 79.018280,108.550163 
	C79.294266,108.563675 79.570251,108.577179 79.846245,108.590691 
	C79.252678,110.455780 78.659111,112.320869 77.646286,115.503380 
	C81.347328,112.623169 85.253540,111.127182 86.093246,108.608757 
	C87.846962,103.349030 87.981842,97.549553 88.781738,91.971802 
	C90.021217,92.008911 91.550293,91.596626 92.442993,92.171883 
	C94.650543,93.594421 96.749290,95.296112 98.556770,97.203125 
	C101.208344,100.000725 104.068352,101.564377 108.320206,100.168091 
	C111.677101,103.752243 114.436790,107.485100 120.045929,107.632446 
	C122.004044,107.683884 123.969955,109.714722 125.821373,111.001244 
	C128.391846,112.787422 130.857788,114.724037 133.712128,116.776260 
	C134.055756,116.956268 133.998901,116.829948 133.998901,116.829941 
	C132.528229,117.024246 131.057739,117.386467 129.586853,117.388000 
	C101.335167,117.417534 73.083427,117.405663 44.831703,117.395920 
	C44.037556,117.395645 43.243431,117.324661 42.055843,116.414749 
	C43.439785,115.571800 44.823730,114.728844 46.967773,113.919205 
	C49.475197,113.446205 51.266193,113.053345 52.957684,112.402046 
	C54.687828,111.735855 56.320415,110.816284 58.002766,110.415115 
	C59.582474,111.184494 61.232883,112.019043 62.706131,111.776688 
	C64.209908,111.529312 65.441002,109.856049 66.963280,109.448067 
	C72.542427,107.952827 74.581146,104.484818 72.828117,98.948051 
M107.634544,106.519188 
	C106.940895,105.367722 106.247246,104.216263 106.095749,103.964783 
	C103.160095,106.641678 100.329117,109.223122 97.140533,112.130646 
	C101.563782,111.935608 105.410240,111.561066 107.634544,106.519188 
z"/>
<path fill="#FF7E0C" opacity="1.000000" stroke="none" 
	d="
M43.518497,77.512650 
	C48.035637,83.523155 48.225479,89.875092 45.974556,96.271652 
	C43.561852,103.127953 36.820965,105.614159 30.101702,102.933861 
	C28.514362,102.300682 26.412674,102.986099 24.546829,103.014236 
	C22.419815,103.046318 20.291943,103.021660 17.967892,103.021660 
	C17.967892,89.604584 17.967892,76.720665 17.967892,63.560375 
	C20.870926,63.560375 23.462875,63.560375 26.693287,63.560375 
	C26.693287,67.699348 26.693287,71.736076 26.693287,76.527969 
	C32.930996,73.160309 38.368332,72.325951 43.518497,77.512650 
M27.279099,93.014488 
	C29.387796,94.230881 32.100338,96.892387 33.462864,96.323051 
	C35.477947,95.481049 36.856495,92.483498 37.873547,90.130363 
	C38.452232,88.791473 38.326992,86.534164 37.531769,85.357422 
	C36.292751,83.523956 34.245060,81.119492 32.482780,81.071747 
	C30.724451,81.024117 28.135683,83.236061 27.302094,85.084656 
	C26.388588,87.110481 27.066385,89.853874 27.279099,93.014488 
z"/>
<path fill="#0E0E0E" opacity="1.000000" stroke="none" 
	d="
M167.477600,111.097031 
	C164.349213,118.209389 161.028915,119.529419 152.842621,116.839584 
	C152.669144,119.306557 152.504105,121.653542 152.315552,124.334839 
	C150.275070,124.334839 148.380280,124.334839 146.094498,124.334839 
	C146.094498,115.147545 146.094498,105.972672 146.094498,96.890099 
	C150.790924,96.533592 155.389328,95.885963 159.982025,95.924118 
	C164.153992,95.958763 167.318115,99.737656 167.862396,104.784882 
	C168.072418,106.732376 167.721313,108.740364 167.477600,111.097031 
M152.278671,106.647461 
	C153.361984,108.677956 154.248199,110.865517 155.658615,112.635330 
	C156.040756,113.114845 158.908493,112.630516 159.092712,112.076050 
	C159.924484,109.572403 160.658737,106.851158 160.468857,104.279114 
	C160.386124,103.158424 157.369965,101.067139 156.775635,101.394547 
	C155.011383,102.366470 153.788681,104.321419 152.278671,106.647461 
z"/>
<path fill="#161616" opacity="1.000000" stroke="none" 
	d="
M186.861130,116.837189 
	C184.710449,117.345314 182.786377,117.507088 180.528366,117.696930 
	C180.528366,110.424934 180.528366,103.684700 180.528366,96.839325 
	C185.390305,96.506096 190.188004,95.779533 194.948990,95.970131 
	C199.158920,96.138657 200.761536,99.536438 200.933960,103.334091 
	C201.137512,107.817497 200.981735,112.317223 200.981735,117.235931 
	C198.772507,117.235931 196.735046,117.235931 194.040466,117.235931 
	C194.040466,113.623573 194.362442,109.978790 193.900711,106.436134 
	C193.679367,104.737740 191.975021,103.232613 190.942291,101.639961 
	C189.687149,103.258553 187.681412,104.734627 187.341110,106.526917 
	C186.729507,109.748131 187.117432,113.159126 186.861130,116.837189 
z"/>
<path fill="#131313" opacity="1.000000" stroke="none" 
	d="
M224.497910,111.810760 
	C221.396423,117.610809 215.967346,119.728531 209.969955,117.477715 
	C204.571854,115.451797 201.727570,109.457329 203.402863,103.637199 
	C205.013306,98.042290 210.037949,94.976028 216.093964,95.892464 
	C221.520645,96.713654 224.457199,100.680191 224.433105,108.250137 
	C219.363586,108.650757 214.807144,108.650757 209.860260,108.650757 
	C211.108658,113.266960 213.329712,113.925087 217.051758,112.626274 
	C219.348953,111.824677 222.003693,112.047729 224.497910,111.810760 
M211.331406,101.542664 
	C210.875763,102.469284 210.420120,103.395905 209.918106,104.416809 
	C212.848068,104.416809 215.325989,104.416809 218.201065,104.416809 
	C217.024628,100.725235 214.914078,100.110313 211.331406,101.542664 
z"/>
<path fill="#FF8010" opacity="1.000000" stroke="none" 
	d="
M55.001133,103.266670 
	C53.559826,103.076538 52.118515,102.886406 50.231770,102.637520 
	C50.231770,93.996544 50.148479,85.553032 50.351875,77.116440 
	C50.373856,76.204819 51.936813,74.801292 52.997112,74.560654 
	C54.853634,74.139305 56.874748,74.443123 59.487457,74.443123 
	C59.487457,83.884720 59.487457,92.796646 59.469101,102.143417 
	C59.450741,102.578262 59.404896,102.641312 59.168945,102.686142 
	C58.631035,102.849136 58.340816,102.991272 57.677727,103.092598 
	C56.529118,103.107422 55.765125,103.187050 55.001133,103.266670 
z"/>
<path fill="#141414" opacity="1.000000" stroke="none" 
	d="
M134.450226,116.634933 
	C133.998901,116.829948 134.055756,116.956268 134.024506,116.987793 
	C134.544876,115.586159 135.546173,114.161545 135.573639,112.718399 
	C135.728073,104.602806 135.648132,96.482765 135.648132,88.100677 
	C138.033691,88.100677 140.100204,88.100677 142.417389,88.100677 
	C142.417389,97.824196 142.417389,107.382637 142.417389,118.021286 
	C139.707367,117.451080 137.304459,116.945503 134.450226,116.634933 
z"/>
<path fill="#191919" opacity="1.000000" stroke="none" 
	d="
M177.120178,111.671234 
	C177.120193,113.767456 177.120193,115.408318 177.120193,117.354256 
	C174.688080,117.354256 172.641647,117.354256 170.367493,117.354256 
	C170.367493,110.292633 170.367493,103.547432 170.367493,96.496353 
	C172.508606,96.496353 174.422913,96.496353 177.120148,96.496353 
	C177.120148,101.402710 177.120148,106.309296 177.120178,111.671234 
z"/>
<path fill="#E5E5E5" opacity="1.000000" stroke="none" 
	d="
M72.516541,99.112923 
	C74.581146,104.484818 72.542427,107.952827 66.963280,109.448067 
	C65.441002,109.856049 64.209908,111.529312 62.706131,111.776688 
	C61.232883,112.019043 59.582474,111.184494 58.197433,110.146317 
	C59.449856,108.784729 60.514668,108.099426 61.586796,107.409416 
	C60.819004,105.731567 60.111950,104.186440 59.404896,102.641312 
	C59.404896,102.641312 59.450741,102.578262 59.488163,102.584572 
	C62.356586,104.632874 63.978130,103.402946 65.056107,100.207512 
	C67.472862,99.659088 69.838913,99.468437 72.516541,99.112923 
z"/>
<path fill="#FF8B24" opacity="1.000000" stroke="none" 
	d="
M54.100281,70.836815 
	C50.166489,71.297684 50.148273,69.077477 50.091774,66.522034 
	C50.032402,63.836861 51.208149,63.005802 53.673847,63.165848 
	C55.436775,63.280277 57.213116,63.188080 59.289452,63.188080 
	C59.289452,65.841286 59.289452,67.910339 59.289452,70.528458 
	C57.685699,70.632553 56.108803,70.734909 54.100281,70.836815 
z"/>
<path fill="#C9C9C9" opacity="1.000000" stroke="none" 
	d="
M59.168945,102.686142 
	C60.111950,104.186440 60.819004,105.731567 61.586796,107.409416 
	C60.514668,108.099426 59.449856,108.784729 58.190376,109.738831 
	C56.320415,110.816284 54.687828,111.735855 52.957684,112.402046 
	C51.266193,113.053345 49.475197,113.446205 47.326576,113.835999 
	C49.410469,110.931808 51.895660,108.144119 54.872971,105.458771 
	C56.264175,104.759880 57.163258,103.958641 58.062340,103.157402 
	C58.340816,102.991272 58.631035,102.849136 59.168945,102.686142 
z"/>
<path fill="#B0B0B0" opacity="1.000000" stroke="none" 
	d="
M231.209808,91.449814 
	C231.874969,96.228561 229.614502,98.187050 225.733475,96.452454 
	C224.882874,96.072281 224.244492,94.391693 224.212158,93.289345 
	C224.189682,92.522797 225.271500,91.188744 226.034958,91.046333 
	C227.596802,90.754997 229.276474,91.095421 231.209808,91.449814 
z"/>
<path fill="#161616" opacity="1.000000" stroke="none" 
	d="
M170.754120,92.991531 
	C170.321854,91.332619 170.241928,89.888161 170.144943,88.135391 
	C172.559677,88.135391 174.621277,88.135391 176.890717,88.135391 
	C176.890717,89.783775 176.890717,91.220894 176.890717,93.205978 
	C174.933578,93.205978 173.020020,93.205978 170.754120,92.991531 
z"/>
<path fill="#E4E4E4" opacity="1.000000" stroke="none" 
	d="
M224.639389,111.293076 
	C222.003693,112.047729 219.348953,111.824677 217.051758,112.626274 
	C213.329712,113.925087 211.108658,113.266960 209.860260,108.650757 
	C214.807144,108.650757 219.363586,108.650757 224.376068,108.643036 
	C224.815002,109.348679 224.797928,110.062027 224.639389,111.293076 
z"/>
<path fill="#E5E5E5" opacity="1.000000" stroke="none" 
	d="
M57.677727,103.092598 
	C57.163258,103.958641 56.264175,104.759880 55.192352,105.343964 
	C55.007484,104.712967 54.995354,104.299141 54.992180,103.575989 
	C55.765125,103.187050 56.529118,103.107422 57.677727,103.092598 
z"/>
<path fill="#EAEAEA" opacity="1.000000" stroke="none" 
	d="
M88.440140,91.999939 
	C87.981842,97.549553 87.846962,103.349030 86.093246,108.608757 
	C85.253540,111.127182 81.347328,112.623169 77.646286,115.503380 
	C78.659111,112.320869 79.252678,110.455780 79.846245,108.590691 
	C79.570251,108.577179 79.294266,108.563675 79.018280,108.550163 
	C79.018280,105.992081 79.018280,103.434006 78.956009,100.470871 
	C81.962006,97.386566 85.030273,94.707314 88.440140,91.999939 
z"/>
<path fill="#CFCFCF" opacity="1.000000" stroke="none" 
	d="
M107.538002,106.856651 
	C105.410240,111.561066 101.563782,111.935608 97.140533,112.130646 
	C100.329117,109.223122 103.160095,106.641678 106.095749,103.964783 
	C106.247246,104.216263 106.940895,105.367722 107.538002,106.856651 
z"/>
<path fill="#FFF7F1" opacity="1.000000" stroke="none" 
	d="
M27.164909,92.649529 
	C27.066385,89.853874 26.388588,87.110481 27.302094,85.084656 
	C28.135683,83.236061 30.724451,81.024117 32.482780,81.071747 
	C34.245060,81.119492 36.292751,83.523956 37.531769,85.357422 
	C38.326992,86.534164 38.452232,88.791473 37.873547,90.130363 
	C36.856495,92.483498 35.477947,95.481049 33.462864,96.323051 
	C32.100338,96.892387 29.387796,94.230881 27.164909,92.649529 
z"/>
<path fill="#EBEBEB" opacity="1.000000" stroke="none" 
	d="
M152.316467,106.269775 
	C153.788681,104.321419 155.011383,102.366470 156.775635,101.394547 
	C157.369965,101.067139 160.386124,103.158424 160.468857,104.279114 
	C160.658737,106.851158 159.924484,109.572403 159.092712,112.076050 
	C158.908493,112.630516 156.040756,113.114845 155.658615,112.635330 
	C154.248199,110.865517 153.361984,108.677956 152.316467,106.269775 
z"/>
<path fill="#D6D6D6" opacity="1.000000" stroke="none" 
	d="
M211.668884,101.299614 
	C214.914078,100.110313 217.024628,100.725235 218.201065,104.416809 
	C215.325989,104.416809 212.848068,104.416809 209.918106,104.416809 
	C210.420120,103.395905 210.875763,102.469284 211.668884,101.299614 
z"/>
</svg>